<?xml version="1.0" standalone="no"?>
<!DOCTYPE svg PUBLIC "-//W3C//DTD SVG 20010904//EN"
 "http://www.w3.org/TR/2001/REC-SVG-20010904/DTD/svg10.dtd">
<svg version="1.0" xmlns="http://www.w3.org/2000/svg"
 width="37.000000pt" height="45.000000pt" viewBox="0 0 37.000000 45.000000"
 preserveAspectRatio="xMidYMid meet">

<g transform="translate(0.000000,45.000000) scale(0.100000,-0.100000)"
fill="#000000" stroke="none">
<path d="M158 332 c-37 -4 -86 -55 -94 -96 -7 -41 17 -98 52 -121 l24 -15 0
80 c0 93 10 120 45 120 15 0 25 6 25 14 0 17 -16 23 -52 18z"/>
<path d="M220 242 c0 -91 -8 -112 -42 -112 -10 0 -18 -7 -18 -15 0 -11 11 -15
36 -15 28 0 44 8 71 35 33 33 35 39 31 85 -5 50 -24 82 -60 101 -17 9 -18 3
-18 -79z"/>
</g>
</svg>
