<svg width="409" height="477" viewBox="0 0 409 477" fill="none" xmlns="http://www.w3.org/2000/svg">
<rect width="7.46112" height="398.817" transform="matrix(-0.816384 0.57751 0.57751 0.816384 153.132 55.9163)" fill="white"/>
<rect width="7.46112" height="416.41" transform="matrix(-0.816384 0.57751 0.57751 0.816384 139.182 56.5052)" fill="white"/>
<rect width="7.46112" height="433.017" transform="matrix(-0.816384 0.57751 0.57751 0.816384 124.456 55.9971)" fill="white"/>
<rect width="7.46112" height="450.316" transform="matrix(-0.816384 0.57751 0.57751 0.816384 110.056 55.9501)" fill="white"/>
<rect width="7.46112" height="463.277" transform="matrix(-0.816384 0.57751 0.57751 0.816384 97.489 58.4943)" fill="white"/>
<rect width="7.46112" height="485.948" transform="matrix(-0.816384 0.57751 0.57751 0.816384 83.0215 58.3519)" fill="white"/>
<rect width="7.46112" height="506.158" transform="matrix(-0.816384 0.57751 0.57751 0.816384 68.8975 58.6946)" fill="white"/>
<path d="M147.2 2C128.933 7.73333 120 31.0667 129.6 48.2667C142.267 70.9333 173.733 70.6667 185.2 47.7333C194.4 29.2 185.733 7.6 166.533 1.86667C158.933 -0.399999 155.2 -0.399999 147.2 2Z" fill="#24282C"/>
<path d="M230.667 99.2C229.867 100.133 225.467 105.467 220.667 110.933C215.867 116.4 187.733 148.667 158 182.533C128.267 216.533 101.467 247.6 98.2668 251.467L92.4001 258.667H70.0001H47.4668L44.6668 262.8C43.0668 264.933 42.0001 267.067 42.2668 267.333C42.5334 267.733 52.5334 266.667 64.5334 265.2C76.5334 263.733 86.5334 262.8 86.8001 263.067C87.0668 263.333 86.1334 265.2 84.5334 267.067L81.8668 270.667H60.1334H38.5334L34.0001 275.333C31.6001 277.867 29.8668 280.267 30.2668 280.667C30.5334 281.067 38.9334 280.4 48.8001 279.333C58.6667 278.267 68.6668 277.333 71.2001 277.333H75.7334L72.6667 280.667C69.6001 284 69.2001 284 47.8667 284H26.2668L22.6667 288.267C20.8001 290.667 18.1334 293.867 17.0667 295.333C15.8667 296.8 11.7334 301.733 7.73342 306.267C3.86675 310.667 0.666748 314.8 0.666748 315.2C0.666748 315.6 34.2668 316 75.3334 316C116.4 316 150 315.733 150 315.333C150 314.933 146.8 310.4 143.067 305.333L136.133 296L78.0001 295.867C16.0001 295.733 16.0001 295.6 64.0001 290.133C90.9334 286.933 98.1334 286.667 147.067 286.667H200.8L199.867 273.6C196.667 223.2 227.867 176.4 275.733 160.133L282.267 157.867L265.333 136.667C256 124.933 246.8 113.2 244.8 110.533C238.933 102.533 234.267 97.3333 233.067 97.3333C232.533 97.3333 231.333 98.1333 230.667 99.2Z" fill="#24282C"/>
<path d="M76.6667 224.667C75.2 226.4 75.6 226.667 78.4 226.667C80.9333 226.667 81.7333 226.133 81.2 224.667C80.6667 223.6 79.8667 222.667 79.3333 222.667C78.8 222.667 77.6 223.6 76.6667 224.667Z" fill="black"/>
<path d="M67.6 235.467C62.4 239.067 64 240.4 72.4 239.467C88.8 237.6 90.2667 237.2 88.5334 235.2C86.4 232.533 71.4667 232.667 67.6 235.467Z" fill="black"/>
<path d="M55.3335 250L52.2668 253.333H56.8002C59.3335 253.333 69.2002 252.4 78.6668 251.333C88.2668 250.267 96.8002 249.333 97.7335 249.333C98.6668 249.333 99.0668 248.667 98.6668 248C98.1335 247.2 89.8668 246.667 78.1335 246.667C58.9335 246.667 58.4002 246.8 55.3335 250Z" fill="black"/>
<circle cx="303.5" cy="262.5" r="105.5" fill="#FFE7AB"/>
</svg>
