<?xml version="1.0" standalone="no"?>
<!DOCTYPE svg PUBLIC "-//W3C//DTD SVG 20010904//EN"
 "http://www.w3.org/TR/2001/REC-SVG-20010904/DTD/svg10.dtd">
<svg version="1.0" xmlns="http://www.w3.org/2000/svg"
 width="438.000000pt" height="385.000000pt" viewBox="0 0 438.000000 385.000000"
 preserveAspectRatio="xMidYMid meet">

<g transform="translate(0.000000,385.000000) scale(0.100000,-0.100000)"
fill="#000000" stroke="none">
<path d="M1599 3595 c-137 -43 -204 -218 -132 -347 95 -170 331 -168 417 4 69
139 4 301 -140 344 -57 17 -85 17 -145 -1z"/>
<path d="M2225 2866 c-6 -7 -39 -47 -75 -88 -36 -41 -247 -283 -470 -537 -223
-255 -424 -488 -448 -517 l-44 -54 -168 0 -169 0 -21 -31 c-12 -16 -20 -32
-18 -34 2 -3 77 5 167 16 90 11 165 18 167 16 2 -2 -5 -16 -17 -30 l-20 -27
-163 0 -162 0 -34 -35 c-18 -19 -31 -37 -28 -40 2 -3 65 2 139 10 74 8 149 15
168 15 l34 0 -23 -25 c-23 -25 -26 -25 -186 -25 l-162 0 -27 -32 c-14 -18 -34
-42 -42 -53 -9 -11 -40 -48 -70 -82 -29 -33 -53 -64 -53 -67 0 -3 252 -6 560
-6 308 0 560 2 560 5 0 3 -24 37 -52 75 l-52 70 -436 1 c-465 1 -465 2 -105
43 202 24 256 26 623 26 l403 0 -7 98 c-24 378 210 729 569 851 l49 17 -127
159 c-70 88 -139 176 -154 196 -44 60 -79 99 -88 99 -4 0 -13 -6 -18 -14z"/>
<path d="M1070 1925 c-11 -13 -8 -15 13 -15 19 0 25 4 21 15 -4 8 -10 15 -14
15 -4 0 -13 -7 -20 -15z"/>
<path d="M1002 1844 c-39 -27 -27 -37 36 -30 123 14 134 17 121 32 -16 20
-128 19 -157 -2z"/>
<path d="M910 1735 l-23 -25 34 0 c19 0 93 7 164 15 72 8 136 15 143 15 7 0
10 5 7 10 -4 6 -66 10 -154 10 -144 0 -148 -1 -171 -25z"/>
</g>
</svg>
